<?xml version="1.0" encoding="utf-8"?>
<?xml-stylesheet type="text/xsl" href="rss1.xsl"?>
<rss version="2.0" xmlns:atom="http://www.w3.org/2005/Atom" xmlns:content="http://purl.org/rss/1.0/modules/content/" xmlns:dc="http://purl.org/dc/elements/1.1/" xmlns:media="http://search.yahoo.com/mrss/">
<channel>
 <title>Getty</title>
 <link>http://www.gettyimg.com/</link>
 <atom:link href="http://www.gettyimg.com/" rel="self" type="application/rss+xml" />

 
                <item>
                <title><![CDATA[【Apple Music】WEB-RiP - Anitta - Mil Veces (1080p)]]></title>
                <link><![CDATA[https://sharemania.us/threads/anitta-mil-veces-1080p.250785/]]></link>
                <description><![CDATA[<article>
<blockquote class="messageText SelectQuoteContainer ugc baseHtml">
<img src="https://i.postimg.cc/y82F39vw/Anitta-Mil-Veces-mp4.jpg" class="bbCodeImage LbImage" alt="[​IMG]" data-url="https://i.postimg.cc/y82F39vw/Anitta-Mil-Veces-mp4.jpg" style=""><br>
<br>
<div class="bbCodeBlock bbCodeCode">
<div class="type">Code:</div>
<pre>General
Complete name                  : G:\Новая папка\Anitta - Mil Veces.mp4
Format                         : MPEG-4
Format profile                 : Base Media
Codec ID                       : isom (isom/iso2/avc1/mp41)
File size                      : 189 MiB
Duration                       : 2 min 34 s
Overall bit rate               : 10.3 Mb/s
Frame rate                     : 23.976 FPS
Movie name                     : Mil Veces
Performer                      : Anitta
Genre                          : Latin
ContentType                    : Music Video
Recorded date                  : 2023-10-19 07:00:00 UTC
Writing application            : Lavf56.30.100
Copyright                      : ℗ 2023 Floresta Records Inc., under exclusive license to Republic Records, a division of UMG Recordings, Inc.

Video
ID                             : 1
Format                         : AVC
Format/Info                    : Advanced Video Codec
Format profile                 : High@L4
Format settings                : CABAC / 4 Ref Frames
Format settings, CABAC         : Yes
Format settings, Reference fra : 4 frames
Format settings, Slice count   : 8 slices per frame
Codec ID                       : avc1
Codec ID/Info                  : Advanced Video Coding
Duration                       : 2 min 34 s
Bit rate                       : 10.0 Mb/s
Width                          : 1 920 pixels
Height                         : 1 080 pixels
Display aspect ratio           : 16:9
Frame rate mode                : Constant
Frame rate                     : 23.976 (24000/1001) FPS
Color space                    : YUV
Chroma subsampling             : 4:2:0
Bit depth                      : 8 bits
Scan type                      : Progressive
Bits/(Pixel*Frame)             : 0.202
Stream size                    : 184 MiB (97%)
Language                       : English
Color range                    : Limited
Color primaries                : BT.709
Transfer characteristics       : BT.709
Matrix coefficients            : BT.709
Codec configuration box        : avcC

Audio
ID                             : 2
Format                         : AAC LC
Format/Info                    : Advanced Audio Codec Low Complexity
Codec ID                       : mp4a-40-2
Duration                       : 2 min 34 s
Duration_LastFrame             : -11 ms
Bit rate mode                  : Constant
Bit rate                       : 265 kb/s
Channel(s)                     : 2 channels
Channel layout                 : L R
Sampling rate                  : 48.0 kHz
Frame rate                     : 46.875 FPS (1024 SPF)
Compression mode               : Lossy
Stream size                    : 4.80 MiB (3%)
Default                        : Yes
Alternate group                : 1

</pre>
</div>
<div class="bbCodeBlock bbCodeVfcHH HiddenContent">
<div class="attribution type">Hidden Content:</div>
<blockquote>You must either reply or click 'Like' to see the hidden information contained here.</blockquote>
</div>
<div class="messageTextEndMarker">&nbsp;</div>
</blockquote>
</article>]]></description>
                <author><![CDATA[vitalya3]]></author>
                </item>

                
                <item>
                <title><![CDATA[【Apple Music】WEB-RiP - Elena - Turboman (Extended) (1080p)]]></title>
                <link><![CDATA[https://sharemania.us/threads/elena-turboman-extended-1080p.250784/]]></link>
                <description><![CDATA[<article>
<blockquote class="messageText SelectQuoteContainer ugc baseHtml">
Thanks / Obrigadão
<div class="messageTextEndMarker">&nbsp;</div>
</blockquote>
</article>]]></description>
                <author><![CDATA[vitalya3]]></author>
                </item>

                
                <item>
                <title><![CDATA[【Apple Music】WEB-RiP - Shoffy - Takes My Body Higher (feat. Lincoln Jesser) (1080p)]]></title>
                <link><![CDATA[https://sharemania.us/threads/shoffy-takes-my-body-higher-feat-lincoln-jesser-1080p.250786/]]></link>
                <description><![CDATA[<article>
<blockquote class="messageText SelectQuoteContainer ugc baseHtml">
<img src="https://i.postimg.cc/9FqtBJKL/Elena-Turboman-Extended-mp4.jpg" class="bbCodeImage LbImage" alt="[​IMG]" data-url="https://i.postimg.cc/9FqtBJKL/Elena-Turboman-Extended-mp4.jpg" style=""><br>
<br>
<div class="bbCodeBlock bbCodeCode">
<div class="type">Code:</div>
<pre>General
Complete name                  : G:\Новая папка\Elena - Turboman (Extended).mp4
Format                         : MPEG-4
Format profile                 : Base Media
Codec ID                       : isom (isom/iso2/avc1/mp41)
File size                      : 150 MiB
Duration                       : 3 min 1 s
Overall bit rate               : 6 926 kb/s
Frame rate                     : 24.000 FPS
Movie name                     : Turboman (Extended)
Performer                      : Elena
Genre                          : Pop
ContentType                    : Music Video
Recorded date                  : 2022-01-14 08:00:00 UTC
Writing application            : Lavf56.30.100
Copyright                      : ℗ 2019 Cat Music

Video
ID                             : 1
Format                         : AVC
Format/Info                    : Advanced Video Codec
Format profile                 : High@L4
Format settings                : CABAC / 4 Ref Frames
Format settings, CABAC         : Yes
Format settings, Reference fra : 4 frames
Format settings, Slice count   : 8 slices per frame
Codec ID                       : avc1
Codec ID/Info                  : Advanced Video Coding
Duration                       : 3 min 1 s
Bit rate                       : 6 655 kb/s
Width                          : 1 920 pixels
Height                         : 1 080 pixels
Display aspect ratio           : 16:9
Frame rate mode                : Constant
Frame rate                     : 24.000 FPS
Color space                    : YUV
Chroma subsampling             : 4:2:0
Bit depth                      : 8 bits
Scan type                      : Progressive
Bits/(Pixel*Frame)             : 0.134
Stream size                    : 144 MiB (96%)
Color range                    : Limited
Color primaries                : BT.709
Transfer characteristics       : BT.709
Matrix coefficients            : BT.709
Codec configuration box        : avcC

Audio
ID                             : 2
Format                         : AAC LC
Format/Info                    : Advanced Audio Codec Low Complexity
Codec ID                       : mp4a-40-2
Duration                       : 3 min 1 s
Duration_LastFrame             : -13 ms
Bit rate mode                  : Constant
Bit rate                       : 265 kb/s
Channel(s)                     : 2 channels
Channel layout                 : L R
Sampling rate                  : 48.0 kHz
Frame rate                     : 46.875 FPS (1024 SPF)
Compression mode               : Lossy
Stream size                    : 5.79 MiB (4%)
Default                        : Yes
Alternate group                : 1

</pre>
</div>
<div class="bbCodeBlock bbCodeVfcHH HiddenContent">
<div class="attribution type">Hidden Content:</div>
<blockquote>You must either reply or click 'Like' to see the hidden information contained here.</blockquote>
</div>
<div class="messageTextEndMarker">&nbsp;</div>
</blockquote>
</article>]]></description>
                <author><![CDATA[vitalya3]]></author>
                </item>

                
                <item>
                <title><![CDATA[【Albums (lossless)】FLAC - Norah Jones - 2021 - ...‘Til We Meet Again [Live] [24bit-96kHz]]]></title>
                <link><![CDATA[https://sharemania.us/threads/norah-jones-2021-%E2%80%98til-we-meet-again-live-24bit-96khz.250783/]]></link>
                <description><![CDATA[<article>
<blockquote class="messageText SelectQuoteContainer ugc baseHtml">
<img src="https://i.postimg.cc/XYKsWsVs/Shoffy-Takes-My-Body-Higher-feat-Lincoln-Jesser-mp4.jpg" class="bbCodeImage LbImage" alt="[​IMG]" data-url="https://i.postimg.cc/XYKsWsVs/Shoffy-Takes-My-Body-Higher-feat-Lincoln-Jesser-mp4.jpg" style=""><br>
<br>
<div class="bbCodeBlock bbCodeCode">
<div class="type">Code:</div>
<pre>General
Complete name                  : G:\Новая папка\Shoffy - Takes My Body Higher (feat. Lincoln Jesser).mp4
Format                         : MPEG-4
Format profile                 : Base Media
Codec ID                       : isom (isom/iso2/avc1/mp41)
File size                      : 206 MiB
Duration                       : 4 min 15 s
Overall bit rate               : 6 773 kb/s
Frame rate                     : 23.976 FPS
Movie name                     : Takes My Body Higher (feat. Lincoln Jesser)
Performer                      : Shoffy
Genre                          : Dance
ContentType                    : Music Video
Recorded date                  : 2016-04-29 07:00:00 UTC
Writing application            : Lavf56.30.100
Copyright                      : ℗ 2016 SOURCE / SpinninRecords.com

Video
ID                             : 1
Format                         : AVC
Format/Info                    : Advanced Video Codec
Format profile                 : High@L4
Format settings                : CABAC / 4 Ref Frames
Format settings, CABAC         : Yes
Format settings, Reference fra : 4 frames
Format settings, Slice count   : 8 slices per frame
Codec ID                       : avc1
Codec ID/Info                  : Advanced Video Coding
Duration                       : 4 min 15 s
Bit rate                       : 6 512 kb/s
Width                          : 1 920 pixels
Height                         : 1 012 pixels
Display aspect ratio           : 1.897
Frame rate mode                : Constant
Frame rate                     : 23.976 (24000/1001) FPS
Color space                    : YUV
Chroma subsampling             : 4:2:0
Bit depth                      : 8 bits
Scan type                      : Progressive
Bits/(Pixel*Frame)             : 0.140
Stream size                    : 198 MiB (96%)
Color range                    : Limited
Color primaries                : BT.709
Transfer characteristics       : BT.709
Matrix coefficients            : BT.709
Codec configuration box        : avcC

Audio
ID                             : 2
Format                         : AAC LC
Format/Info                    : Advanced Audio Codec Low Complexity
Codec ID                       : mp4a-40-2
Duration                       : 4 min 15 s
Duration_LastFrame             : -18 ms
Bit rate mode                  : Constant
Bit rate                       : 256 kb/s
Channel(s)                     : 2 channels
Channel layout                 : L R
Sampling rate                  : 48.0 kHz
Frame rate                     : 46.875 FPS (1024 SPF)
Compression mode               : Lossy
Stream size                    : 7.79 MiB (4%)
Default                        : Yes
Alternate group                : 1

</pre>
</div>
<div class="bbCodeBlock bbCodeVfcHH HiddenContent">
<div class="attribution type">Hidden Content:</div>
<blockquote>You must either reply or click 'Like' to see the hidden information contained here.</blockquote>
</div>
<div class="messageTextEndMarker">&nbsp;</div>
</blockquote>
</article>]]></description>
                <author><![CDATA[XRB80]]></author>
                </item>

                
                <item>
                <title><![CDATA[【Apple Music】WEB-RiP - Elena - Your Captain Tonight (1080p)]]></title>
                <link><![CDATA[https://sharemania.us/threads/elena-your-captain-tonight-1080p.250782/]]></link>
                <description><![CDATA[<article>
<blockquote class="messageText SelectQuoteContainer ugc baseHtml">
<div style="text-align: center"><img src="https://static.qobuz.com/images/covers/zb/u6/b2d4k8h8pu6zb_600.jpg" class="bbCodeImage LbImage" alt="[​IMG]" data-url="https://static.qobuz.com/images/covers/zb/u6/b2d4k8h8pu6zb_600.jpg" style=""> <br>
<br>
<b>Artist</b>: Norah Jones <br>
<b>Album</b>: ...'Til We Meet Again [Live]<br>
<b>Date</b>: 16 April 2021<br>
<b>Genre</b>: Jazz<br>
<b>Quality</b>: 24bit-96kHz<br>
<b>Country</b>: USA<br>
<b>Size</b>: 1,5GB<br>
<br>
<b>Tracklist</b>:<br>
<br>
1. Cold, Cold Heart 05:24<br>
2. It Was You 05:37<br>
3. Begin Again 04:16<br>
4. Those Sweet Words 03:50<br>
5. I've Got To See You Again 07:33<br>
6. After The Fall 05:33<br>
7. I'll Be Gone 04:48<br>
8. Just A Little Bit 05:29<br>
9. Falling 04:35<br>
10. Tragedy 05:04<br>
11. Sunrise 04:32<br>
12. Flipside 06:47<br>
13. Don't Know Why 05:05<br>
14. Black Hole Sun (Soundgarden Cover) 07:11<br>
<br>
<br>
<b><span style="font-size: 22px"><span style="color: #b30000">send.cm</span></span></b>:<br>
<br>
<div class="bbCodeBlock bbCodeVfcHH HiddenContent">
<div class="attribution type">Hidden Content:</div>
<blockquote>You must either reply or click 'Like' to see the hidden information contained here.</blockquote>
</div></div>
<div class="messageTextEndMarker">&nbsp;</div>
</blockquote>
</article>]]></description>
                <author><![CDATA[vitalya3]]></author>
                </item>

                </channel></rss>